<mxfile host="app.diagrams.net" agent="Mozilla/5.0 (Windows NT 10.0; Win64; x64) AppleWebKit/537.36 (KHTML, like Gecko) Chrome/131.0.0.0 Safari/537.36" version="25.0.3">
  <diagram name="Page-1" id="Fo77bc1eJNsrVG6yijD4">
    <mxGraphModel dx="880" dy="434" grid="1" gridSize="10" guides="1" tooltips="1" connect="1" arrows="1" fold="1" page="1" pageScale="1" pageWidth="827" pageHeight="1169" math="0" shadow="0">
      <root>
        <mxCell id="0" />
        <mxCell id="1" parent="0" />
        <mxCell id="qkhUaowtE4e5Xx0_fxXh-1" value="New User" style="shape=umlActor;verticalLabelPosition=bottom;verticalAlign=top;html=1;outlineConnect=0;" parent="1" vertex="1">
          <mxGeometry x="90" y="100" width="30" height="60" as="geometry" />
        </mxCell>
        <mxCell id="qkhUaowtE4e5Xx0_fxXh-4" value="Database" style="swimlane;whiteSpace=wrap;html=1;" parent="1" vertex="1">
          <mxGeometry x="290" y="20" width="110" height="110" as="geometry" />
        </mxCell>
        <mxCell id="qkhUaowtE4e5Xx0_fxXh-5" value="Read DB" style="ellipse;whiteSpace=wrap;html=1;" parent="qkhUaowtE4e5Xx0_fxXh-4" vertex="1">
          <mxGeometry x="5" y="30" width="100" height="30" as="geometry" />
        </mxCell>
        <mxCell id="qkhUaowtE4e5Xx0_fxXh-6" value="Save to DB" style="ellipse;whiteSpace=wrap;html=1;" parent="qkhUaowtE4e5Xx0_fxXh-4" vertex="1">
          <mxGeometry x="5" y="70" width="100" height="30" as="geometry" />
        </mxCell>
        <mxCell id="qkhUaowtE4e5Xx0_fxXh-8" value="Sign Up Page" style="swimlane;whiteSpace=wrap;html=1;" parent="1" vertex="1">
          <mxGeometry x="290" y="170" width="110" height="70" as="geometry" />
        </mxCell>
        <mxCell id="qkhUaowtE4e5Xx0_fxXh-9" value="Sign Up" style="ellipse;whiteSpace=wrap;html=1;" parent="qkhUaowtE4e5Xx0_fxXh-8" vertex="1">
          <mxGeometry x="5" y="30" width="100" height="30" as="geometry" />
        </mxCell>
        <mxCell id="qkhUaowtE4e5Xx0_fxXh-14" value="&amp;lt;&amp;lt;service&amp;gt;&amp;gt;&lt;div&gt;Validation&lt;/div&gt;" style="shape=umlActor;verticalLabelPosition=bottom;verticalAlign=top;html=1;outlineConnect=0;" parent="1" vertex="1">
          <mxGeometry x="680" y="100" width="30" height="60" as="geometry" />
        </mxCell>
        <mxCell id="qkhUaowtE4e5Xx0_fxXh-16" value="Old User" style="shape=umlActor;verticalLabelPosition=bottom;verticalAlign=top;html=1;outlineConnect=0;" parent="1" vertex="1">
          <mxGeometry x="90" y="430" width="30" height="60" as="geometry" />
        </mxCell>
        <mxCell id="qkhUaowtE4e5Xx0_fxXh-17" value="Sign In Page" style="swimlane;whiteSpace=wrap;html=1;" parent="1" vertex="1">
          <mxGeometry x="290" y="275" width="110" height="70" as="geometry" />
        </mxCell>
        <mxCell id="qkhUaowtE4e5Xx0_fxXh-18" value="Sign In" style="ellipse;whiteSpace=wrap;html=1;" parent="qkhUaowtE4e5Xx0_fxXh-17" vertex="1">
          <mxGeometry x="5" y="30" width="100" height="30" as="geometry" />
        </mxCell>
        <mxCell id="qkhUaowtE4e5Xx0_fxXh-19" value="" style="endArrow=classic;html=1;rounded=0;exitX=0;exitY=0.5;exitDx=0;exitDy=0;entryX=0;entryY=0.5;entryDx=0;entryDy=0;" parent="1" source="qkhUaowtE4e5Xx0_fxXh-18" target="qkhUaowtE4e5Xx0_fxXh-6" edge="1">
          <mxGeometry width="50" height="50" relative="1" as="geometry">
            <mxPoint x="190" y="310" as="sourcePoint" />
            <mxPoint x="240" y="260" as="targetPoint" />
            <Array as="points">
              <mxPoint x="240" y="320" />
              <mxPoint x="240" y="105" />
            </Array>
          </mxGeometry>
        </mxCell>
        <mxCell id="qkhUaowtE4e5Xx0_fxXh-20" value="&amp;lt;&amp;lt;includes&amp;gt;&amp;gt;" style="edgeLabel;html=1;align=center;verticalAlign=middle;resizable=0;points=[];" parent="qkhUaowtE4e5Xx0_fxXh-19" vertex="1" connectable="0">
          <mxGeometry x="-0.2815" y="-1" relative="1" as="geometry">
            <mxPoint y="-118" as="offset" />
          </mxGeometry>
        </mxCell>
        <mxCell id="qkhUaowtE4e5Xx0_fxXh-22" value="User" style="shape=umlActor;verticalLabelPosition=bottom;verticalAlign=top;html=1;outlineConnect=0;" parent="1" vertex="1">
          <mxGeometry x="90" y="260" width="30" height="60" as="geometry" />
        </mxCell>
        <mxCell id="qkhUaowtE4e5Xx0_fxXh-23" value="" style="endArrow=block;html=1;rounded=0;exitX=0.5;exitY=0;exitDx=0;exitDy=0;exitPerimeter=0;entryX=0.5;entryY=0.5;entryDx=0;entryDy=0;entryPerimeter=0;endFill=0;" parent="1" source="qkhUaowtE4e5Xx0_fxXh-16" target="qkhUaowtE4e5Xx0_fxXh-22" edge="1">
          <mxGeometry width="50" height="50" relative="1" as="geometry">
            <mxPoint x="20" y="410" as="sourcePoint" />
            <mxPoint x="70" y="360" as="targetPoint" />
            <Array as="points">
              <mxPoint x="40" y="430" />
              <mxPoint x="40" y="290" />
            </Array>
          </mxGeometry>
        </mxCell>
        <mxCell id="qkhUaowtE4e5Xx0_fxXh-25" value="" style="endArrow=none;html=1;rounded=0;entryX=0.5;entryY=0;entryDx=0;entryDy=0;entryPerimeter=0;" parent="1" target="qkhUaowtE4e5Xx0_fxXh-1" edge="1">
          <mxGeometry width="50" height="50" relative="1" as="geometry">
            <mxPoint x="40" y="290" as="sourcePoint" />
            <mxPoint x="80" y="210" as="targetPoint" />
            <Array as="points">
              <mxPoint x="40" y="100" />
            </Array>
          </mxGeometry>
        </mxCell>
        <mxCell id="qkhUaowtE4e5Xx0_fxXh-26" value="User Page" style="swimlane;whiteSpace=wrap;html=1;" parent="1" vertex="1">
          <mxGeometry x="290" y="360" width="110" height="450" as="geometry" />
        </mxCell>
        <mxCell id="qkhUaowtE4e5Xx0_fxXh-27" value="Show Profile" style="ellipse;whiteSpace=wrap;html=1;" parent="qkhUaowtE4e5Xx0_fxXh-26" vertex="1">
          <mxGeometry x="5" y="30" width="100" height="30" as="geometry" />
        </mxCell>
        <mxCell id="qkhUaowtE4e5Xx0_fxXh-29" value="Show Friends&#39; Stories" style="ellipse;whiteSpace=wrap;html=1;" parent="qkhUaowtE4e5Xx0_fxXh-26" vertex="1">
          <mxGeometry x="5" y="120" width="100" height="40" as="geometry" />
        </mxCell>
        <mxCell id="qkhUaowtE4e5Xx0_fxXh-28" value="Show Friends&#39; Posts" style="ellipse;whiteSpace=wrap;html=1;" parent="qkhUaowtE4e5Xx0_fxXh-26" vertex="1">
          <mxGeometry x="5" y="70" width="100" height="40" as="geometry" />
        </mxCell>
        <mxCell id="qkhUaowtE4e5Xx0_fxXh-30" value="Create Posts" style="ellipse;whiteSpace=wrap;html=1;" parent="qkhUaowtE4e5Xx0_fxXh-26" vertex="1">
          <mxGeometry x="5" y="170" width="100" height="30" as="geometry" />
        </mxCell>
        <mxCell id="qkhUaowtE4e5Xx0_fxXh-36" value="Add Friend" style="ellipse;whiteSpace=wrap;html=1;" parent="qkhUaowtE4e5Xx0_fxXh-26" vertex="1">
          <mxGeometry x="5" y="250" width="100" height="30" as="geometry" />
        </mxCell>
        <mxCell id="qkhUaowtE4e5Xx0_fxXh-38" value="Block Friend" style="ellipse;whiteSpace=wrap;html=1;" parent="qkhUaowtE4e5Xx0_fxXh-26" vertex="1">
          <mxGeometry x="5" y="330" width="100" height="30" as="geometry" />
        </mxCell>
        <mxCell id="qkhUaowtE4e5Xx0_fxXh-37" value="Remove Friend" style="ellipse;whiteSpace=wrap;html=1;" parent="qkhUaowtE4e5Xx0_fxXh-26" vertex="1">
          <mxGeometry x="5" y="290" width="100" height="30" as="geometry" />
        </mxCell>
        <mxCell id="qkhUaowtE4e5Xx0_fxXh-39" value="Unblock Friend" style="ellipse;whiteSpace=wrap;html=1;" parent="qkhUaowtE4e5Xx0_fxXh-26" vertex="1">
          <mxGeometry x="5" y="370" width="100" height="30" as="geometry" />
        </mxCell>
        <mxCell id="qkhUaowtE4e5Xx0_fxXh-57" value="Create Stories" style="ellipse;whiteSpace=wrap;html=1;" parent="qkhUaowtE4e5Xx0_fxXh-26" vertex="1">
          <mxGeometry x="5" y="210" width="100" height="30" as="geometry" />
        </mxCell>
        <mxCell id="qkhUaowtE4e5Xx0_fxXh-64" value="Log Out" style="ellipse;whiteSpace=wrap;html=1;" parent="qkhUaowtE4e5Xx0_fxXh-26" vertex="1">
          <mxGeometry x="5" y="410" width="100" height="30" as="geometry" />
        </mxCell>
        <mxCell id="qkhUaowtE4e5Xx0_fxXh-31" value="" style="endArrow=none;html=1;rounded=0;exitX=1;exitY=0.3333333333333333;exitDx=0;exitDy=0;exitPerimeter=0;entryX=0;entryY=0.5;entryDx=0;entryDy=0;" parent="1" source="qkhUaowtE4e5Xx0_fxXh-16" target="qkhUaowtE4e5Xx0_fxXh-27" edge="1">
          <mxGeometry width="50" height="50" relative="1" as="geometry">
            <mxPoint x="150" y="560" as="sourcePoint" />
            <mxPoint x="200" y="510" as="targetPoint" />
          </mxGeometry>
        </mxCell>
        <mxCell id="qkhUaowtE4e5Xx0_fxXh-32" value="" style="endArrow=none;html=1;rounded=0;exitX=1;exitY=0.3333333333333333;exitDx=0;exitDy=0;exitPerimeter=0;entryX=0;entryY=0.5;entryDx=0;entryDy=0;" parent="1" source="qkhUaowtE4e5Xx0_fxXh-16" target="qkhUaowtE4e5Xx0_fxXh-28" edge="1">
          <mxGeometry width="50" height="50" relative="1" as="geometry">
            <mxPoint x="150" y="500" as="sourcePoint" />
            <mxPoint x="200" y="450" as="targetPoint" />
          </mxGeometry>
        </mxCell>
        <mxCell id="qkhUaowtE4e5Xx0_fxXh-33" value="" style="endArrow=none;html=1;rounded=0;entryX=0;entryY=0.5;entryDx=0;entryDy=0;" parent="1" target="qkhUaowtE4e5Xx0_fxXh-29" edge="1">
          <mxGeometry width="50" height="50" relative="1" as="geometry">
            <mxPoint x="120" y="450" as="sourcePoint" />
            <mxPoint x="210" y="520" as="targetPoint" />
          </mxGeometry>
        </mxCell>
        <mxCell id="qkhUaowtE4e5Xx0_fxXh-34" value="" style="endArrow=none;html=1;rounded=0;entryX=0;entryY=0.5;entryDx=0;entryDy=0;" parent="1" target="qkhUaowtE4e5Xx0_fxXh-30" edge="1">
          <mxGeometry width="50" height="50" relative="1" as="geometry">
            <mxPoint x="120" y="450" as="sourcePoint" />
            <mxPoint x="220" y="530" as="targetPoint" />
          </mxGeometry>
        </mxCell>
        <mxCell id="qkhUaowtE4e5Xx0_fxXh-41" value="" style="endArrow=none;html=1;rounded=0;entryX=1;entryY=0.3333333333333333;entryDx=0;entryDy=0;entryPerimeter=0;exitX=0;exitY=0.5;exitDx=0;exitDy=0;" parent="1" source="qkhUaowtE4e5Xx0_fxXh-37" target="qkhUaowtE4e5Xx0_fxXh-16" edge="1">
          <mxGeometry width="50" height="50" relative="1" as="geometry">
            <mxPoint x="100" y="670" as="sourcePoint" />
            <mxPoint x="150" y="620" as="targetPoint" />
          </mxGeometry>
        </mxCell>
        <mxCell id="qkhUaowtE4e5Xx0_fxXh-42" value="" style="endArrow=none;html=1;rounded=0;entryX=1;entryY=0.3333333333333333;entryDx=0;entryDy=0;entryPerimeter=0;exitX=0;exitY=0.5;exitDx=0;exitDy=0;" parent="1" source="qkhUaowtE4e5Xx0_fxXh-38" target="qkhUaowtE4e5Xx0_fxXh-16" edge="1">
          <mxGeometry width="50" height="50" relative="1" as="geometry">
            <mxPoint x="110" y="680" as="sourcePoint" />
            <mxPoint x="160" y="630" as="targetPoint" />
          </mxGeometry>
        </mxCell>
        <mxCell id="qkhUaowtE4e5Xx0_fxXh-43" value="" style="endArrow=none;html=1;rounded=0;entryX=1;entryY=0.3333333333333333;entryDx=0;entryDy=0;entryPerimeter=0;exitX=0;exitY=0.5;exitDx=0;exitDy=0;" parent="1" source="qkhUaowtE4e5Xx0_fxXh-39" target="qkhUaowtE4e5Xx0_fxXh-16" edge="1">
          <mxGeometry width="50" height="50" relative="1" as="geometry">
            <mxPoint x="120" y="690" as="sourcePoint" />
            <mxPoint x="170" y="640" as="targetPoint" />
          </mxGeometry>
        </mxCell>
        <mxCell id="qkhUaowtE4e5Xx0_fxXh-44" value="" style="endArrow=none;html=1;rounded=0;entryX=0;entryY=0.5;entryDx=0;entryDy=0;" parent="1" target="qkhUaowtE4e5Xx0_fxXh-36" edge="1">
          <mxGeometry width="50" height="50" relative="1" as="geometry">
            <mxPoint x="120" y="450" as="sourcePoint" />
            <mxPoint x="180" y="650" as="targetPoint" />
          </mxGeometry>
        </mxCell>
        <mxCell id="qkhUaowtE4e5Xx0_fxXh-45" value="&lt;div&gt;&amp;lt;&amp;lt;service&amp;gt;&amp;gt;&lt;/div&gt;Profile Manager" style="shape=umlActor;verticalLabelPosition=bottom;verticalAlign=top;html=1;outlineConnect=0;" parent="1" vertex="1">
          <mxGeometry x="680" y="330" width="30" height="60" as="geometry" />
        </mxCell>
        <mxCell id="qkhUaowtE4e5Xx0_fxXh-46" value="" style="endArrow=none;html=1;rounded=0;exitX=1;exitY=0.5;exitDx=0;exitDy=0;entryX=0;entryY=0.3333333333333333;entryDx=0;entryDy=0;entryPerimeter=0;" parent="1" source="qkhUaowtE4e5Xx0_fxXh-27" target="qkhUaowtE4e5Xx0_fxXh-45" edge="1">
          <mxGeometry width="50" height="50" relative="1" as="geometry">
            <mxPoint x="530" y="550" as="sourcePoint" />
            <mxPoint x="580" y="500" as="targetPoint" />
          </mxGeometry>
        </mxCell>
        <mxCell id="qkhUaowtE4e5Xx0_fxXh-47" value="&amp;lt;&amp;lt;service&amp;gt;&amp;gt;&lt;div&gt;Posts Manager&lt;/div&gt;" style="shape=umlActor;verticalLabelPosition=bottom;verticalAlign=top;html=1;outlineConnect=0;" parent="1" vertex="1">
          <mxGeometry x="520" y="410" width="30" height="60" as="geometry" />
        </mxCell>
        <mxCell id="qkhUaowtE4e5Xx0_fxXh-48" value="" style="endArrow=none;html=1;rounded=0;exitX=1;exitY=0.5;exitDx=0;exitDy=0;entryX=0;entryY=0.3333333333333333;entryDx=0;entryDy=0;entryPerimeter=0;" parent="1" source="qkhUaowtE4e5Xx0_fxXh-28" target="qkhUaowtE4e5Xx0_fxXh-47" edge="1">
          <mxGeometry width="50" height="50" relative="1" as="geometry">
            <mxPoint x="460" y="620" as="sourcePoint" />
            <mxPoint x="510" y="570" as="targetPoint" />
          </mxGeometry>
        </mxCell>
        <mxCell id="qkhUaowtE4e5Xx0_fxXh-49" value="" style="endArrow=none;html=1;rounded=0;entryX=0;entryY=0.3333333333333333;entryDx=0;entryDy=0;entryPerimeter=0;exitX=1;exitY=0.5;exitDx=0;exitDy=0;" parent="1" source="qkhUaowtE4e5Xx0_fxXh-27" target="qkhUaowtE4e5Xx0_fxXh-47" edge="1">
          <mxGeometry width="50" height="50" relative="1" as="geometry">
            <mxPoint x="430" y="570" as="sourcePoint" />
            <mxPoint x="480" y="520" as="targetPoint" />
          </mxGeometry>
        </mxCell>
        <mxCell id="qkhUaowtE4e5Xx0_fxXh-50" value="&amp;lt;&amp;lt;service&amp;gt;&amp;gt;&lt;div&gt;Stories Manager&lt;/div&gt;" style="shape=umlActor;verticalLabelPosition=bottom;verticalAlign=top;html=1;outlineConnect=0;" parent="1" vertex="1">
          <mxGeometry x="520" y="555" width="30" height="60" as="geometry" />
        </mxCell>
        <mxCell id="qkhUaowtE4e5Xx0_fxXh-51" value="" style="endArrow=none;html=1;rounded=0;entryX=0;entryY=0.3333333333333333;entryDx=0;entryDy=0;entryPerimeter=0;exitX=1;exitY=0.5;exitDx=0;exitDy=0;" parent="1" source="qkhUaowtE4e5Xx0_fxXh-27" target="qkhUaowtE4e5Xx0_fxXh-50" edge="1">
          <mxGeometry width="50" height="50" relative="1" as="geometry">
            <mxPoint x="470" y="650" as="sourcePoint" />
            <mxPoint x="520" y="600" as="targetPoint" />
          </mxGeometry>
        </mxCell>
        <mxCell id="qkhUaowtE4e5Xx0_fxXh-52" value="" style="endArrow=none;html=1;rounded=0;entryX=0;entryY=0.3333333333333333;entryDx=0;entryDy=0;entryPerimeter=0;exitX=1;exitY=0.5;exitDx=0;exitDy=0;" parent="1" source="qkhUaowtE4e5Xx0_fxXh-29" target="qkhUaowtE4e5Xx0_fxXh-50" edge="1">
          <mxGeometry width="50" height="50" relative="1" as="geometry">
            <mxPoint x="430" y="690" as="sourcePoint" />
            <mxPoint x="480" y="640" as="targetPoint" />
          </mxGeometry>
        </mxCell>
        <mxCell id="qkhUaowtE4e5Xx0_fxXh-53" value="&amp;lt;&amp;lt;service&amp;gt;&amp;gt;&lt;div&gt;Content Manager&lt;/div&gt;" style="shape=umlActor;verticalLabelPosition=bottom;verticalAlign=top;html=1;outlineConnect=0;" parent="1" vertex="1">
          <mxGeometry x="680" y="470" width="30" height="60" as="geometry" />
        </mxCell>
        <mxCell id="qkhUaowtE4e5Xx0_fxXh-54" value="" style="endArrow=block;html=1;rounded=0;exitX=0.5;exitY=0;exitDx=0;exitDy=0;exitPerimeter=0;entryX=0.5;entryY=0.5;entryDx=0;entryDy=0;entryPerimeter=0;endFill=0;" parent="1" source="qkhUaowtE4e5Xx0_fxXh-47" target="qkhUaowtE4e5Xx0_fxXh-53" edge="1">
          <mxGeometry width="50" height="50" relative="1" as="geometry">
            <mxPoint x="490" y="520" as="sourcePoint" />
            <mxPoint x="540" y="470" as="targetPoint" />
            <Array as="points">
              <mxPoint x="600" y="430" />
              <mxPoint x="600" y="500" />
            </Array>
          </mxGeometry>
        </mxCell>
        <mxCell id="qkhUaowtE4e5Xx0_fxXh-55" value="" style="endArrow=none;html=1;rounded=0;exitX=0.5;exitY=0;exitDx=0;exitDy=0;exitPerimeter=0;" parent="1" source="qkhUaowtE4e5Xx0_fxXh-50" edge="1">
          <mxGeometry width="50" height="50" relative="1" as="geometry">
            <mxPoint x="540" y="710" as="sourcePoint" />
            <mxPoint x="600" y="500" as="targetPoint" />
            <Array as="points">
              <mxPoint x="600" y="555" />
            </Array>
          </mxGeometry>
        </mxCell>
        <mxCell id="qkhUaowtE4e5Xx0_fxXh-56" value="" style="endArrow=none;html=1;rounded=0;exitX=1;exitY=0.5;exitDx=0;exitDy=0;entryX=0;entryY=0.3333333333333333;entryDx=0;entryDy=0;entryPerimeter=0;" parent="1" source="qkhUaowtE4e5Xx0_fxXh-30" target="qkhUaowtE4e5Xx0_fxXh-47" edge="1">
          <mxGeometry width="50" height="50" relative="1" as="geometry">
            <mxPoint x="430" y="670" as="sourcePoint" />
            <mxPoint x="480" y="620" as="targetPoint" />
          </mxGeometry>
        </mxCell>
        <mxCell id="qkhUaowtE4e5Xx0_fxXh-58" value="" style="endArrow=none;html=1;rounded=0;exitX=1;exitY=0.5;exitDx=0;exitDy=0;entryX=0;entryY=0.3333333333333333;entryDx=0;entryDy=0;entryPerimeter=0;" parent="1" source="qkhUaowtE4e5Xx0_fxXh-57" target="qkhUaowtE4e5Xx0_fxXh-50" edge="1">
          <mxGeometry width="50" height="50" relative="1" as="geometry">
            <mxPoint x="450" y="740" as="sourcePoint" />
            <mxPoint x="500" y="690" as="targetPoint" />
          </mxGeometry>
        </mxCell>
        <mxCell id="qkhUaowtE4e5Xx0_fxXh-59" value="&amp;lt;&amp;lt;service&amp;gt;&amp;gt;&lt;div&gt;Friends Manager&lt;/div&gt;" style="shape=umlActor;verticalLabelPosition=bottom;verticalAlign=top;html=1;outlineConnect=0;" parent="1" vertex="1">
          <mxGeometry x="680" y="670" width="30" height="60" as="geometry" />
        </mxCell>
        <mxCell id="qkhUaowtE4e5Xx0_fxXh-60" value="" style="endArrow=none;html=1;rounded=0;exitX=1;exitY=0.5;exitDx=0;exitDy=0;entryX=0;entryY=0.3333333333333333;entryDx=0;entryDy=0;entryPerimeter=0;" parent="1" source="qkhUaowtE4e5Xx0_fxXh-36" target="qkhUaowtE4e5Xx0_fxXh-59" edge="1">
          <mxGeometry width="50" height="50" relative="1" as="geometry">
            <mxPoint x="450" y="780" as="sourcePoint" />
            <mxPoint x="500" y="730" as="targetPoint" />
          </mxGeometry>
        </mxCell>
        <mxCell id="qkhUaowtE4e5Xx0_fxXh-61" value="" style="endArrow=none;html=1;rounded=0;exitX=1;exitY=0.5;exitDx=0;exitDy=0;entryX=0;entryY=0.3333333333333333;entryDx=0;entryDy=0;entryPerimeter=0;" parent="1" source="qkhUaowtE4e5Xx0_fxXh-37" target="qkhUaowtE4e5Xx0_fxXh-59" edge="1">
          <mxGeometry width="50" height="50" relative="1" as="geometry">
            <mxPoint x="470" y="780" as="sourcePoint" />
            <mxPoint x="520" y="730" as="targetPoint" />
          </mxGeometry>
        </mxCell>
        <mxCell id="qkhUaowtE4e5Xx0_fxXh-62" value="" style="endArrow=none;html=1;rounded=0;exitX=1;exitY=0.5;exitDx=0;exitDy=0;entryX=0;entryY=0.3333333333333333;entryDx=0;entryDy=0;entryPerimeter=0;" parent="1" source="qkhUaowtE4e5Xx0_fxXh-38" target="qkhUaowtE4e5Xx0_fxXh-59" edge="1">
          <mxGeometry width="50" height="50" relative="1" as="geometry">
            <mxPoint x="500" y="780" as="sourcePoint" />
            <mxPoint x="550" y="730" as="targetPoint" />
          </mxGeometry>
        </mxCell>
        <mxCell id="qkhUaowtE4e5Xx0_fxXh-63" value="" style="endArrow=none;html=1;rounded=0;exitX=1;exitY=0.5;exitDx=0;exitDy=0;entryX=0;entryY=0.3333333333333333;entryDx=0;entryDy=0;entryPerimeter=0;" parent="1" source="qkhUaowtE4e5Xx0_fxXh-39" target="qkhUaowtE4e5Xx0_fxXh-59" edge="1">
          <mxGeometry width="50" height="50" relative="1" as="geometry">
            <mxPoint x="500" y="810" as="sourcePoint" />
            <mxPoint x="550" y="760" as="targetPoint" />
          </mxGeometry>
        </mxCell>
        <mxCell id="qkhUaowtE4e5Xx0_fxXh-65" value="" style="endArrow=none;html=1;rounded=0;exitX=0;exitY=0.5;exitDx=0;exitDy=0;endFill=0;" parent="1" source="qkhUaowtE4e5Xx0_fxXh-64" edge="1">
          <mxGeometry width="50" height="50" relative="1" as="geometry">
            <mxPoint x="170" y="760" as="sourcePoint" />
            <mxPoint x="240" y="320" as="targetPoint" />
            <Array as="points">
              <mxPoint x="240" y="785" />
            </Array>
          </mxGeometry>
        </mxCell>
        <mxCell id="qkhUaowtE4e5Xx0_fxXh-66" value="" style="endArrow=none;html=1;rounded=0;exitX=1;exitY=0.3333333333333333;exitDx=0;exitDy=0;exitPerimeter=0;entryX=0;entryY=0.5;entryDx=0;entryDy=0;" parent="1" source="qkhUaowtE4e5Xx0_fxXh-16" target="qkhUaowtE4e5Xx0_fxXh-57" edge="1">
          <mxGeometry width="50" height="50" relative="1" as="geometry">
            <mxPoint x="90" y="690" as="sourcePoint" />
            <mxPoint x="140" y="640" as="targetPoint" />
          </mxGeometry>
        </mxCell>
        <mxCell id="qkhUaowtE4e5Xx0_fxXh-67" value="" style="endArrow=none;html=1;rounded=0;entryX=0;entryY=0.5;entryDx=0;entryDy=0;exitX=1;exitY=0.3333333333333333;exitDx=0;exitDy=0;exitPerimeter=0;" parent="1" source="qkhUaowtE4e5Xx0_fxXh-1" target="qkhUaowtE4e5Xx0_fxXh-9" edge="1">
          <mxGeometry width="50" height="50" relative="1" as="geometry">
            <mxPoint x="140" y="270" as="sourcePoint" />
            <mxPoint x="190" y="220" as="targetPoint" />
          </mxGeometry>
        </mxCell>
        <mxCell id="qkhUaowtE4e5Xx0_fxXh-68" value="" style="endArrow=none;html=1;rounded=0;exitX=1;exitY=0.3333333333333333;exitDx=0;exitDy=0;exitPerimeter=0;entryX=0;entryY=0.5;entryDx=0;entryDy=0;" parent="1" source="qkhUaowtE4e5Xx0_fxXh-16" target="qkhUaowtE4e5Xx0_fxXh-18" edge="1">
          <mxGeometry width="50" height="50" relative="1" as="geometry">
            <mxPoint x="130" y="410" as="sourcePoint" />
            <mxPoint x="180" y="360" as="targetPoint" />
          </mxGeometry>
        </mxCell>
        <mxCell id="qkhUaowtE4e5Xx0_fxXh-69" value="" style="endArrow=none;html=1;rounded=0;entryX=0;entryY=0.5;entryDx=0;entryDy=0;" parent="1" target="qkhUaowtE4e5Xx0_fxXh-9" edge="1">
          <mxGeometry width="50" height="50" relative="1" as="geometry">
            <mxPoint x="240" y="215" as="sourcePoint" />
            <mxPoint x="220" y="260" as="targetPoint" />
          </mxGeometry>
        </mxCell>
        <mxCell id="qkhUaowtE4e5Xx0_fxXh-70" value="" style="endArrow=classic;html=1;rounded=0;entryX=1;entryY=0.5;entryDx=0;entryDy=0;" parent="1" target="qkhUaowtE4e5Xx0_fxXh-5" edge="1">
          <mxGeometry width="50" height="50" relative="1" as="geometry">
            <mxPoint x="440" y="745" as="sourcePoint" />
            <mxPoint x="394.9999999999999" y="70" as="targetPoint" />
            <Array as="points">
              <mxPoint x="440" y="65" />
            </Array>
          </mxGeometry>
        </mxCell>
        <mxCell id="qkhUaowtE4e5Xx0_fxXh-82" value="&amp;lt;&amp;lt;includes&amp;gt;&amp;gt;" style="edgeLabel;html=1;align=center;verticalAlign=middle;resizable=0;points=[];" parent="qkhUaowtE4e5Xx0_fxXh-70" vertex="1" connectable="0">
          <mxGeometry x="0.6814" y="-1" relative="1" as="geometry">
            <mxPoint as="offset" />
          </mxGeometry>
        </mxCell>
        <mxCell id="qkhUaowtE4e5Xx0_fxXh-71" value="" style="endArrow=none;html=1;rounded=0;exitX=1;exitY=0.5;exitDx=0;exitDy=0;" parent="1" source="qkhUaowtE4e5Xx0_fxXh-39" edge="1">
          <mxGeometry width="50" height="50" relative="1" as="geometry">
            <mxPoint x="470" y="810" as="sourcePoint" />
            <mxPoint x="440" y="745" as="targetPoint" />
          </mxGeometry>
        </mxCell>
        <mxCell id="qkhUaowtE4e5Xx0_fxXh-72" value="" style="endArrow=none;html=1;rounded=0;exitX=1;exitY=0.5;exitDx=0;exitDy=0;" parent="1" source="qkhUaowtE4e5Xx0_fxXh-38" edge="1">
          <mxGeometry width="50" height="50" relative="1" as="geometry">
            <mxPoint x="420" y="720" as="sourcePoint" />
            <mxPoint x="440" y="705" as="targetPoint" />
          </mxGeometry>
        </mxCell>
        <mxCell id="qkhUaowtE4e5Xx0_fxXh-73" value="" style="endArrow=none;html=1;rounded=0;entryX=0;entryY=0.3333333333333333;entryDx=0;entryDy=0;entryPerimeter=0;exitX=1;exitY=0.5;exitDx=0;exitDy=0;" parent="1" source="qkhUaowtE4e5Xx0_fxXh-9" target="qkhUaowtE4e5Xx0_fxXh-14" edge="1">
          <mxGeometry width="50" height="50" relative="1" as="geometry">
            <mxPoint x="580" y="200" as="sourcePoint" />
            <mxPoint x="630" y="150" as="targetPoint" />
          </mxGeometry>
        </mxCell>
        <mxCell id="qkhUaowtE4e5Xx0_fxXh-74" value="" style="endArrow=none;html=1;rounded=0;exitX=1;exitY=0.5;exitDx=0;exitDy=0;entryX=0;entryY=0.3333333333333333;entryDx=0;entryDy=0;entryPerimeter=0;" parent="1" source="qkhUaowtE4e5Xx0_fxXh-18" target="qkhUaowtE4e5Xx0_fxXh-14" edge="1">
          <mxGeometry width="50" height="50" relative="1" as="geometry">
            <mxPoint x="480" y="310" as="sourcePoint" />
            <mxPoint x="530" y="260" as="targetPoint" />
          </mxGeometry>
        </mxCell>
        <mxCell id="qkhUaowtE4e5Xx0_fxXh-75" value="" style="endArrow=none;html=1;rounded=0;exitX=1;exitY=0.5;exitDx=0;exitDy=0;" parent="1" source="qkhUaowtE4e5Xx0_fxXh-37" edge="1">
          <mxGeometry width="50" height="50" relative="1" as="geometry">
            <mxPoint x="430" y="660" as="sourcePoint" />
            <mxPoint x="440" y="665" as="targetPoint" />
          </mxGeometry>
        </mxCell>
        <mxCell id="qkhUaowtE4e5Xx0_fxXh-76" value="" style="endArrow=none;html=1;rounded=0;exitX=1;exitY=0.5;exitDx=0;exitDy=0;" parent="1" source="qkhUaowtE4e5Xx0_fxXh-36" edge="1">
          <mxGeometry width="50" height="50" relative="1" as="geometry">
            <mxPoint x="425" y="775" as="sourcePoint" />
            <mxPoint x="440" y="625" as="targetPoint" />
          </mxGeometry>
        </mxCell>
        <mxCell id="qkhUaowtE4e5Xx0_fxXh-77" value="" style="endArrow=none;html=1;rounded=0;exitX=1;exitY=0.5;exitDx=0;exitDy=0;" parent="1" source="qkhUaowtE4e5Xx0_fxXh-57" edge="1">
          <mxGeometry width="50" height="50" relative="1" as="geometry">
            <mxPoint x="435" y="785" as="sourcePoint" />
            <mxPoint x="440" y="585" as="targetPoint" />
          </mxGeometry>
        </mxCell>
        <mxCell id="qkhUaowtE4e5Xx0_fxXh-78" value="" style="endArrow=none;html=1;rounded=0;exitX=1;exitY=0.5;exitDx=0;exitDy=0;" parent="1" source="qkhUaowtE4e5Xx0_fxXh-30" edge="1">
          <mxGeometry width="50" height="50" relative="1" as="geometry">
            <mxPoint x="445" y="795" as="sourcePoint" />
            <mxPoint x="440" y="545" as="targetPoint" />
          </mxGeometry>
        </mxCell>
        <mxCell id="qkhUaowtE4e5Xx0_fxXh-79" value="" style="endArrow=none;html=1;rounded=0;exitX=1;exitY=0.5;exitDx=0;exitDy=0;" parent="1" source="qkhUaowtE4e5Xx0_fxXh-29" edge="1">
          <mxGeometry width="50" height="50" relative="1" as="geometry">
            <mxPoint x="450" y="570" as="sourcePoint" />
            <mxPoint x="440" y="500" as="targetPoint" />
          </mxGeometry>
        </mxCell>
        <mxCell id="qkhUaowtE4e5Xx0_fxXh-80" value="" style="endArrow=none;html=1;rounded=0;exitX=1;exitY=0.5;exitDx=0;exitDy=0;" parent="1" source="qkhUaowtE4e5Xx0_fxXh-28" edge="1">
          <mxGeometry width="50" height="50" relative="1" as="geometry">
            <mxPoint x="391" y="480" as="sourcePoint" />
            <mxPoint x="440" y="450" as="targetPoint" />
          </mxGeometry>
        </mxCell>
        <mxCell id="qkhUaowtE4e5Xx0_fxXh-81" value="" style="endArrow=none;html=1;rounded=0;exitX=1;exitY=0.5;exitDx=0;exitDy=0;" parent="1" source="qkhUaowtE4e5Xx0_fxXh-27" edge="1">
          <mxGeometry width="50" height="50" relative="1" as="geometry">
            <mxPoint x="415" y="520" as="sourcePoint" />
            <mxPoint x="440" y="405" as="targetPoint" />
          </mxGeometry>
        </mxCell>
        <mxCell id="qkhUaowtE4e5Xx0_fxXh-83" value="" style="endArrow=none;html=1;rounded=0;entryX=0;entryY=0.5;entryDx=0;entryDy=0;" parent="1" target="qkhUaowtE4e5Xx0_fxXh-36" edge="1">
          <mxGeometry width="50" height="50" relative="1" as="geometry">
            <mxPoint x="240" y="625" as="sourcePoint" />
            <mxPoint x="210" y="700" as="targetPoint" />
          </mxGeometry>
        </mxCell>
        <mxCell id="qkhUaowtE4e5Xx0_fxXh-84" value="" style="endArrow=none;html=1;rounded=0;exitX=0;exitY=0.5;exitDx=0;exitDy=0;" parent="1" source="qkhUaowtE4e5Xx0_fxXh-39" edge="1">
          <mxGeometry width="50" height="50" relative="1" as="geometry">
            <mxPoint x="240" y="740" as="sourcePoint" />
            <mxPoint x="240" y="745" as="targetPoint" />
          </mxGeometry>
        </mxCell>
        <mxCell id="qkhUaowtE4e5Xx0_fxXh-85" value="" style="endArrow=none;html=1;rounded=0;entryX=0;entryY=0.5;entryDx=0;entryDy=0;" parent="1" target="qkhUaowtE4e5Xx0_fxXh-38" edge="1">
          <mxGeometry width="50" height="50" relative="1" as="geometry">
            <mxPoint x="240" y="705" as="sourcePoint" />
            <mxPoint x="315" y="645" as="targetPoint" />
          </mxGeometry>
        </mxCell>
        <mxCell id="qkhUaowtE4e5Xx0_fxXh-86" value="" style="endArrow=none;html=1;rounded=0;entryX=0;entryY=0.5;entryDx=0;entryDy=0;" parent="1" target="qkhUaowtE4e5Xx0_fxXh-37" edge="1">
          <mxGeometry width="50" height="50" relative="1" as="geometry">
            <mxPoint x="240" y="665" as="sourcePoint" />
            <mxPoint x="325" y="655" as="targetPoint" />
          </mxGeometry>
        </mxCell>
        <mxCell id="qkhUaowtE4e5Xx0_fxXh-87" value="" style="endArrow=none;html=1;rounded=0;exitX=0;exitY=0.5;exitDx=0;exitDy=0;" parent="1" source="qkhUaowtE4e5Xx0_fxXh-57" edge="1">
          <mxGeometry width="50" height="50" relative="1" as="geometry">
            <mxPoint x="280" y="665" as="sourcePoint" />
            <mxPoint x="240" y="585" as="targetPoint" />
          </mxGeometry>
        </mxCell>
        <mxCell id="qkhUaowtE4e5Xx0_fxXh-88" value="" style="endArrow=none;html=1;rounded=0;exitX=0;exitY=0.5;exitDx=0;exitDy=0;" parent="1" source="qkhUaowtE4e5Xx0_fxXh-30" edge="1">
          <mxGeometry width="50" height="50" relative="1" as="geometry">
            <mxPoint x="290" y="675" as="sourcePoint" />
            <mxPoint x="240" y="545" as="targetPoint" />
          </mxGeometry>
        </mxCell>
        <mxCell id="JMdhlgWa25gZdpcMildK-12" value="Groups" style="swimlane;whiteSpace=wrap;html=1;" vertex="1" parent="1">
          <mxGeometry x="290" y="830" width="110" height="500" as="geometry" />
        </mxCell>
        <mxCell id="JMdhlgWa25gZdpcMildK-13" value="View Group" style="ellipse;whiteSpace=wrap;html=1;" vertex="1" parent="JMdhlgWa25gZdpcMildK-12">
          <mxGeometry x="5" y="70" width="100" height="30" as="geometry" />
        </mxCell>
        <mxCell id="JMdhlgWa25gZdpcMildK-18" value="Request To Join" style="ellipse;whiteSpace=wrap;html=1;" vertex="1" parent="JMdhlgWa25gZdpcMildK-12">
          <mxGeometry x="5" y="110" width="100" height="30" as="geometry" />
        </mxCell>
        <mxCell id="JMdhlgWa25gZdpcMildK-23" value="Post To Group" style="ellipse;whiteSpace=wrap;html=1;" vertex="1" parent="JMdhlgWa25gZdpcMildK-12">
          <mxGeometry x="5" y="150" width="100" height="30" as="geometry" />
        </mxCell>
        <mxCell id="JMdhlgWa25gZdpcMildK-24" value="Delete Posts" style="ellipse;whiteSpace=wrap;html=1;" vertex="1" parent="JMdhlgWa25gZdpcMildK-12">
          <mxGeometry x="5" y="190" width="100" height="30" as="geometry" />
        </mxCell>
        <mxCell id="JMdhlgWa25gZdpcMildK-25" value="Kick Members" style="ellipse;whiteSpace=wrap;html=1;" vertex="1" parent="JMdhlgWa25gZdpcMildK-12">
          <mxGeometry x="5" y="280" width="100" height="30" as="geometry" />
        </mxCell>
        <mxCell id="JMdhlgWa25gZdpcMildK-27" value="Accept/Reject Join Requests" style="ellipse;whiteSpace=wrap;html=1;" vertex="1" parent="JMdhlgWa25gZdpcMildK-12">
          <mxGeometry x="5" y="320" width="100" height="40" as="geometry" />
        </mxCell>
        <mxCell id="JMdhlgWa25gZdpcMildK-28" value="Promote Members" style="ellipse;whiteSpace=wrap;html=1;" vertex="1" parent="JMdhlgWa25gZdpcMildK-12">
          <mxGeometry x="5" y="370" width="100" height="40" as="geometry" />
        </mxCell>
        <mxCell id="JMdhlgWa25gZdpcMildK-29" value="Demote Admins" style="ellipse;whiteSpace=wrap;html=1;" vertex="1" parent="JMdhlgWa25gZdpcMildK-12">
          <mxGeometry x="5" y="420" width="100" height="30" as="geometry" />
        </mxCell>
        <mxCell id="JMdhlgWa25gZdpcMildK-30" value="Delete Group" style="ellipse;whiteSpace=wrap;html=1;" vertex="1" parent="JMdhlgWa25gZdpcMildK-12">
          <mxGeometry x="5" y="460" width="100" height="30" as="geometry" />
        </mxCell>
        <mxCell id="JMdhlgWa25gZdpcMildK-56" value="Create Group" style="ellipse;whiteSpace=wrap;html=1;" vertex="1" parent="JMdhlgWa25gZdpcMildK-12">
          <mxGeometry x="5" y="30" width="100" height="30" as="geometry" />
        </mxCell>
        <mxCell id="JMdhlgWa25gZdpcMildK-26" value="Manage Group Posts" style="ellipse;whiteSpace=wrap;html=1;" vertex="1" parent="JMdhlgWa25gZdpcMildK-12">
          <mxGeometry x="5" y="230" width="100" height="40" as="geometry" />
        </mxCell>
        <mxCell id="JMdhlgWa25gZdpcMildK-31" value="" style="endArrow=none;html=1;rounded=0;entryX=1;entryY=0.3333333333333333;entryDx=0;entryDy=0;entryPerimeter=0;exitX=0;exitY=0.5;exitDx=0;exitDy=0;" edge="1" parent="1" source="JMdhlgWa25gZdpcMildK-13" target="qkhUaowtE4e5Xx0_fxXh-16">
          <mxGeometry width="50" height="50" relative="1" as="geometry">
            <mxPoint x="210" y="860" as="sourcePoint" />
            <mxPoint x="160" y="880" as="targetPoint" />
            <Array as="points">
              <mxPoint x="180" y="890" />
              <mxPoint x="180" y="650" />
            </Array>
          </mxGeometry>
        </mxCell>
        <mxCell id="JMdhlgWa25gZdpcMildK-32" value="" style="endArrow=none;html=1;rounded=0;exitX=0;exitY=0.5;exitDx=0;exitDy=0;" edge="1" parent="1" source="JMdhlgWa25gZdpcMildK-18">
          <mxGeometry width="50" height="50" relative="1" as="geometry">
            <mxPoint x="90" y="1030" as="sourcePoint" />
            <mxPoint x="180" y="890" as="targetPoint" />
          </mxGeometry>
        </mxCell>
        <mxCell id="JMdhlgWa25gZdpcMildK-33" value="Member" style="shape=umlActor;verticalLabelPosition=bottom;verticalAlign=top;html=1;outlineConnect=0;" vertex="1" parent="1">
          <mxGeometry x="90" y="890" width="30" height="60" as="geometry" />
        </mxCell>
        <mxCell id="JMdhlgWa25gZdpcMildK-35" value="" style="endArrow=none;html=1;rounded=0;entryX=1;entryY=0.3333333333333333;entryDx=0;entryDy=0;entryPerimeter=0;exitX=0;exitY=0.5;exitDx=0;exitDy=0;" edge="1" parent="1" source="JMdhlgWa25gZdpcMildK-23" target="JMdhlgWa25gZdpcMildK-33">
          <mxGeometry width="50" height="50" relative="1" as="geometry">
            <mxPoint x="110" y="1060" as="sourcePoint" />
            <mxPoint x="160" y="1010" as="targetPoint" />
          </mxGeometry>
        </mxCell>
        <mxCell id="JMdhlgWa25gZdpcMildK-36" value="" style="endArrow=none;html=1;rounded=0;entryX=1;entryY=0.3333333333333333;entryDx=0;entryDy=0;entryPerimeter=0;exitX=0;exitY=0.5;exitDx=0;exitDy=0;" edge="1" parent="1" source="JMdhlgWa25gZdpcMildK-24" target="JMdhlgWa25gZdpcMildK-33">
          <mxGeometry width="50" height="50" relative="1" as="geometry">
            <mxPoint x="100" y="1050" as="sourcePoint" />
            <mxPoint x="150" y="1000" as="targetPoint" />
          </mxGeometry>
        </mxCell>
        <mxCell id="JMdhlgWa25gZdpcMildK-37" value="" style="endArrow=block;html=1;rounded=0;exitX=0.5;exitY=0;exitDx=0;exitDy=0;exitPerimeter=0;entryX=0.5;entryY=0.5;entryDx=0;entryDy=0;entryPerimeter=0;endFill=0;" edge="1" parent="1" source="JMdhlgWa25gZdpcMildK-33" target="qkhUaowtE4e5Xx0_fxXh-16">
          <mxGeometry width="50" height="50" relative="1" as="geometry">
            <mxPoint x="80" y="880" as="sourcePoint" />
            <mxPoint x="130" y="830" as="targetPoint" />
            <Array as="points">
              <mxPoint x="40" y="890" />
              <mxPoint x="40" y="460" />
            </Array>
          </mxGeometry>
        </mxCell>
        <mxCell id="JMdhlgWa25gZdpcMildK-38" value="Admin" style="shape=umlActor;verticalLabelPosition=bottom;verticalAlign=top;html=1;outlineConnect=0;" vertex="1" parent="1">
          <mxGeometry x="90" y="1020" width="30" height="60" as="geometry" />
        </mxCell>
        <mxCell id="JMdhlgWa25gZdpcMildK-39" value="" style="endArrow=none;html=1;rounded=0;entryX=0;entryY=0.5;entryDx=0;entryDy=0;exitX=1;exitY=0.3333333333333333;exitDx=0;exitDy=0;exitPerimeter=0;" edge="1" parent="1" source="JMdhlgWa25gZdpcMildK-38" target="JMdhlgWa25gZdpcMildK-25">
          <mxGeometry width="50" height="50" relative="1" as="geometry">
            <mxPoint x="140" y="1140" as="sourcePoint" />
            <mxPoint x="190" y="1090" as="targetPoint" />
          </mxGeometry>
        </mxCell>
        <mxCell id="JMdhlgWa25gZdpcMildK-40" value="" style="endArrow=none;html=1;rounded=0;entryX=0;entryY=0.5;entryDx=0;entryDy=0;exitX=1;exitY=0.3333333333333333;exitDx=0;exitDy=0;exitPerimeter=0;" edge="1" parent="1" source="JMdhlgWa25gZdpcMildK-38" target="JMdhlgWa25gZdpcMildK-26">
          <mxGeometry width="50" height="50" relative="1" as="geometry">
            <mxPoint x="150" y="1150" as="sourcePoint" />
            <mxPoint x="305" y="1045" as="targetPoint" />
          </mxGeometry>
        </mxCell>
        <mxCell id="JMdhlgWa25gZdpcMildK-41" value="" style="endArrow=none;html=1;rounded=0;entryX=0;entryY=0.5;entryDx=0;entryDy=0;exitX=1;exitY=0.3333333333333333;exitDx=0;exitDy=0;exitPerimeter=0;" edge="1" parent="1" source="JMdhlgWa25gZdpcMildK-38" target="JMdhlgWa25gZdpcMildK-27">
          <mxGeometry width="50" height="50" relative="1" as="geometry">
            <mxPoint x="130" y="1050" as="sourcePoint" />
            <mxPoint x="305" y="1090" as="targetPoint" />
          </mxGeometry>
        </mxCell>
        <mxCell id="JMdhlgWa25gZdpcMildK-43" value="" style="endArrow=block;html=1;rounded=0;entryX=0.5;entryY=0.5;entryDx=0;entryDy=0;entryPerimeter=0;exitX=0.5;exitY=0;exitDx=0;exitDy=0;exitPerimeter=0;endFill=0;" edge="1" parent="1" source="JMdhlgWa25gZdpcMildK-38" target="JMdhlgWa25gZdpcMildK-33">
          <mxGeometry width="50" height="50" relative="1" as="geometry">
            <mxPoint x="20" y="1080" as="sourcePoint" />
            <mxPoint x="70" y="1030" as="targetPoint" />
            <Array as="points">
              <mxPoint x="40" y="1020" />
              <mxPoint x="40" y="920" />
            </Array>
          </mxGeometry>
        </mxCell>
        <mxCell id="JMdhlgWa25gZdpcMildK-44" value="Primary Admin" style="shape=umlActor;verticalLabelPosition=bottom;verticalAlign=top;html=1;outlineConnect=0;" vertex="1" parent="1">
          <mxGeometry x="90" y="1160" width="30" height="60" as="geometry" />
        </mxCell>
        <mxCell id="JMdhlgWa25gZdpcMildK-45" value="" style="endArrow=block;html=1;rounded=0;exitX=0.5;exitY=0;exitDx=0;exitDy=0;exitPerimeter=0;entryX=0.5;entryY=0.5;entryDx=0;entryDy=0;entryPerimeter=0;endFill=0;" edge="1" parent="1" source="JMdhlgWa25gZdpcMildK-44" target="JMdhlgWa25gZdpcMildK-38">
          <mxGeometry width="50" height="50" relative="1" as="geometry">
            <mxPoint x="30" y="1170" as="sourcePoint" />
            <mxPoint x="80" y="1120" as="targetPoint" />
            <Array as="points">
              <mxPoint x="40" y="1160" />
              <mxPoint x="40" y="1050" />
            </Array>
          </mxGeometry>
        </mxCell>
        <mxCell id="JMdhlgWa25gZdpcMildK-46" value="" style="endArrow=none;html=1;rounded=0;exitX=1;exitY=0.3333333333333333;exitDx=0;exitDy=0;exitPerimeter=0;entryX=0;entryY=0.5;entryDx=0;entryDy=0;" edge="1" parent="1" source="JMdhlgWa25gZdpcMildK-44" target="JMdhlgWa25gZdpcMildK-28">
          <mxGeometry width="50" height="50" relative="1" as="geometry">
            <mxPoint x="140" y="1200" as="sourcePoint" />
            <mxPoint x="190" y="1150" as="targetPoint" />
          </mxGeometry>
        </mxCell>
        <mxCell id="JMdhlgWa25gZdpcMildK-47" value="" style="endArrow=none;html=1;rounded=0;entryX=0;entryY=0.5;entryDx=0;entryDy=0;exitX=1;exitY=0.3333333333333333;exitDx=0;exitDy=0;exitPerimeter=0;" edge="1" parent="1" source="JMdhlgWa25gZdpcMildK-44" target="JMdhlgWa25gZdpcMildK-29">
          <mxGeometry width="50" height="50" relative="1" as="geometry">
            <mxPoint x="130" y="1190" as="sourcePoint" />
            <mxPoint x="305" y="1190" as="targetPoint" />
          </mxGeometry>
        </mxCell>
        <mxCell id="JMdhlgWa25gZdpcMildK-48" value="" style="endArrow=none;html=1;rounded=0;entryX=0;entryY=0.5;entryDx=0;entryDy=0;exitX=1;exitY=0.3333333333333333;exitDx=0;exitDy=0;exitPerimeter=0;" edge="1" parent="1" source="JMdhlgWa25gZdpcMildK-44" target="JMdhlgWa25gZdpcMildK-30">
          <mxGeometry width="50" height="50" relative="1" as="geometry">
            <mxPoint x="130" y="1190" as="sourcePoint" />
            <mxPoint x="305" y="1235" as="targetPoint" />
          </mxGeometry>
        </mxCell>
        <mxCell id="JMdhlgWa25gZdpcMildK-49" value="&amp;lt;&amp;lt;service&amp;gt;&amp;gt;&lt;div&gt;Group Content Manager&lt;/div&gt;" style="shape=umlActor;verticalLabelPosition=bottom;verticalAlign=top;html=1;outlineConnect=0;" vertex="1" parent="1">
          <mxGeometry x="520" y="1010" width="30" height="60" as="geometry" />
        </mxCell>
        <mxCell id="JMdhlgWa25gZdpcMildK-50" value="" style="endArrow=none;html=1;rounded=0;entryX=0;entryY=0.3333333333333333;entryDx=0;entryDy=0;entryPerimeter=0;exitX=1;exitY=0.5;exitDx=0;exitDy=0;" edge="1" parent="1" source="JMdhlgWa25gZdpcMildK-23" target="JMdhlgWa25gZdpcMildK-49">
          <mxGeometry width="50" height="50" relative="1" as="geometry">
            <mxPoint x="460" y="1120" as="sourcePoint" />
            <mxPoint x="510" y="1070" as="targetPoint" />
          </mxGeometry>
        </mxCell>
        <mxCell id="JMdhlgWa25gZdpcMildK-51" value="" style="endArrow=none;html=1;rounded=0;entryX=0;entryY=0.3333333333333333;entryDx=0;entryDy=0;entryPerimeter=0;exitX=1;exitY=0.5;exitDx=0;exitDy=0;" edge="1" parent="1" source="JMdhlgWa25gZdpcMildK-24" target="JMdhlgWa25gZdpcMildK-49">
          <mxGeometry width="50" height="50" relative="1" as="geometry">
            <mxPoint x="405" y="965" as="sourcePoint" />
            <mxPoint x="530" y="970" as="targetPoint" />
          </mxGeometry>
        </mxCell>
        <mxCell id="JMdhlgWa25gZdpcMildK-52" value="" style="endArrow=none;html=1;rounded=0;entryX=0;entryY=0.3333333333333333;entryDx=0;entryDy=0;entryPerimeter=0;exitX=1;exitY=0.5;exitDx=0;exitDy=0;" edge="1" parent="1" source="JMdhlgWa25gZdpcMildK-26" target="JMdhlgWa25gZdpcMildK-49">
          <mxGeometry width="50" height="50" relative="1" as="geometry">
            <mxPoint x="405" y="1005" as="sourcePoint" />
            <mxPoint x="530" y="970" as="targetPoint" />
          </mxGeometry>
        </mxCell>
        <mxCell id="JMdhlgWa25gZdpcMildK-53" value="" style="endArrow=none;html=1;rounded=0;exitX=0.5;exitY=0;exitDx=0;exitDy=0;exitPerimeter=0;" edge="1" parent="1" source="JMdhlgWa25gZdpcMildK-49">
          <mxGeometry width="50" height="50" relative="1" as="geometry">
            <mxPoint x="560" y="910" as="sourcePoint" />
            <mxPoint x="600" y="550" as="targetPoint" />
            <Array as="points">
              <mxPoint x="600" y="1010" />
            </Array>
          </mxGeometry>
        </mxCell>
        <mxCell id="JMdhlgWa25gZdpcMildK-57" value="" style="endArrow=none;html=1;rounded=0;entryX=0;entryY=0.5;entryDx=0;entryDy=0;" edge="1" parent="1" target="JMdhlgWa25gZdpcMildK-56">
          <mxGeometry width="50" height="50" relative="1" as="geometry">
            <mxPoint x="180" y="890" as="sourcePoint" />
            <mxPoint x="220" y="930" as="targetPoint" />
          </mxGeometry>
        </mxCell>
        <mxCell id="JMdhlgWa25gZdpcMildK-58" value="&amp;lt;&amp;lt;service&amp;gt;&amp;gt;&lt;div&gt;Group Manager&lt;/div&gt;" style="shape=umlActor;verticalLabelPosition=bottom;verticalAlign=top;html=1;outlineConnect=0;" vertex="1" parent="1">
          <mxGeometry x="680" y="1130" width="30" height="60" as="geometry" />
        </mxCell>
        <mxCell id="JMdhlgWa25gZdpcMildK-59" value="" style="endArrow=none;html=1;rounded=0;entryX=0;entryY=0.3333333333333333;entryDx=0;entryDy=0;entryPerimeter=0;exitX=1;exitY=0.5;exitDx=0;exitDy=0;" edge="1" parent="1" source="JMdhlgWa25gZdpcMildK-25" target="JMdhlgWa25gZdpcMildK-58">
          <mxGeometry width="50" height="50" relative="1" as="geometry">
            <mxPoint x="490" y="1230" as="sourcePoint" />
            <mxPoint x="540" y="1180" as="targetPoint" />
          </mxGeometry>
        </mxCell>
        <mxCell id="JMdhlgWa25gZdpcMildK-60" value="" style="endArrow=none;html=1;rounded=0;entryX=0;entryY=0.3333333333333333;entryDx=0;entryDy=0;entryPerimeter=0;exitX=1;exitY=0.5;exitDx=0;exitDy=0;" edge="1" parent="1" source="JMdhlgWa25gZdpcMildK-27" target="JMdhlgWa25gZdpcMildK-58">
          <mxGeometry width="50" height="50" relative="1" as="geometry">
            <mxPoint x="405" y="1135" as="sourcePoint" />
            <mxPoint x="690" y="1160" as="targetPoint" />
          </mxGeometry>
        </mxCell>
        <mxCell id="JMdhlgWa25gZdpcMildK-61" value="" style="endArrow=none;html=1;rounded=0;entryX=0;entryY=0.3333333333333333;entryDx=0;entryDy=0;entryPerimeter=0;exitX=1;exitY=0.5;exitDx=0;exitDy=0;" edge="1" parent="1" source="JMdhlgWa25gZdpcMildK-28" target="JMdhlgWa25gZdpcMildK-58">
          <mxGeometry width="50" height="50" relative="1" as="geometry">
            <mxPoint x="415" y="1145" as="sourcePoint" />
            <mxPoint x="700" y="1170" as="targetPoint" />
          </mxGeometry>
        </mxCell>
        <mxCell id="JMdhlgWa25gZdpcMildK-62" value="" style="endArrow=none;html=1;rounded=0;entryX=0;entryY=0.3333333333333333;entryDx=0;entryDy=0;entryPerimeter=0;exitX=1;exitY=0.5;exitDx=0;exitDy=0;" edge="1" parent="1" source="JMdhlgWa25gZdpcMildK-29" target="JMdhlgWa25gZdpcMildK-58">
          <mxGeometry width="50" height="50" relative="1" as="geometry">
            <mxPoint x="510" y="1270" as="sourcePoint" />
            <mxPoint x="795" y="1295" as="targetPoint" />
          </mxGeometry>
        </mxCell>
        <mxCell id="JMdhlgWa25gZdpcMildK-63" value="" style="endArrow=none;html=1;rounded=0;entryX=0;entryY=0.3333333333333333;entryDx=0;entryDy=0;entryPerimeter=0;exitX=1;exitY=0.5;exitDx=0;exitDy=0;" edge="1" parent="1" source="JMdhlgWa25gZdpcMildK-30" target="JMdhlgWa25gZdpcMildK-58">
          <mxGeometry width="50" height="50" relative="1" as="geometry">
            <mxPoint x="435" y="1165" as="sourcePoint" />
            <mxPoint x="720" y="1190" as="targetPoint" />
          </mxGeometry>
        </mxCell>
        <mxCell id="JMdhlgWa25gZdpcMildK-64" value="" style="endArrow=none;html=1;rounded=0;exitX=0;exitY=0.3333333333333333;exitDx=0;exitDy=0;exitPerimeter=0;" edge="1" parent="1" source="JMdhlgWa25gZdpcMildK-58">
          <mxGeometry width="50" height="50" relative="1" as="geometry">
            <mxPoint x="660" y="1100" as="sourcePoint" />
            <mxPoint x="680" y="910" as="targetPoint" />
          </mxGeometry>
        </mxCell>
        <mxCell id="JMdhlgWa25gZdpcMildK-65" value="" style="endArrow=none;html=1;rounded=0;exitX=1;exitY=0.5;exitDx=0;exitDy=0;" edge="1" parent="1" source="JMdhlgWa25gZdpcMildK-56">
          <mxGeometry width="50" height="50" relative="1" as="geometry">
            <mxPoint x="425" y="865" as="sourcePoint" />
            <mxPoint x="680" y="910" as="targetPoint" />
          </mxGeometry>
        </mxCell>
        <mxCell id="JMdhlgWa25gZdpcMildK-66" value="" style="endArrow=none;html=1;rounded=0;exitX=1;exitY=0.5;exitDx=0;exitDy=0;" edge="1" parent="1" source="JMdhlgWa25gZdpcMildK-18">
          <mxGeometry width="50" height="50" relative="1" as="geometry">
            <mxPoint x="460" y="950" as="sourcePoint" />
            <mxPoint x="680" y="910" as="targetPoint" />
          </mxGeometry>
        </mxCell>
        <mxCell id="JMdhlgWa25gZdpcMildK-67" value="" style="endArrow=none;html=1;rounded=0;exitX=1;exitY=0.5;exitDx=0;exitDy=0;" edge="1" parent="1" source="JMdhlgWa25gZdpcMildK-13">
          <mxGeometry width="50" height="50" relative="1" as="geometry">
            <mxPoint x="480" y="920" as="sourcePoint" />
            <mxPoint x="680" y="910" as="targetPoint" />
          </mxGeometry>
        </mxCell>
      </root>
    </mxGraphModel>
  </diagram>
</mxfile>
